<svg xmlns="http://www.w3.org/2000/svg" xmlns:xlink="http://www.w3.org/1999/xlink" version="1.1" id="Capa_1" viewBox="0 0 455 455" xml:space="preserve" fill="#000000"><g id="SVGRepo_bgCarrier" stroke-width="0"></g><g id="SVGRepo_tracerCarrier" stroke-linecap="round" stroke-linejoin="round"></g><g id="SVGRepo_iconCarrier"> <g> <polygon style="fill:#023b1d;" points="0,169.46 227.5,377.23 455,169.46 "></polygon> <polygon style="fill:#a1fca7;" points="227.5,0 237.5,367.23 60,216.34 60,0 "></polygon> <polygon style="fill:#a1fca7;" points="395,216.34 227.5,367.23 227.5,0 395,0 "></polygon> <polygon style="fill:#037a3a;" points="272.29,312.23 272.29,435 455,455 455,169.46 "></polygon> <polygon style="fill:#037a3a;" points="0,169.46 0,455 182.71,435 182.71,312.23 "></polygon> <path style="fill:#000000;" d="M363.25,101.372h-12.5v-12.5c0-4.143-3.357-7.5-7.5-7.5s-7.5,3.357-7.5,7.5v12.5h-12.5 c-4.143,0-7.5,3.357-7.5,7.5s3.357,7.5,7.5,7.5h12.5v12.5c0,4.143,3.357,7.5,7.5,7.5s7.5-3.357,7.5-7.5v-12.5h12.5 c4.143,0,7.5-3.357,7.5-7.5S367.393,101.372,363.25,101.372z"></path> <path style="fill:#000000;" d="M317.564,132.804c-0.015-0.038-0.03-0.075-0.046-0.112l-19.339-46.69 c-1.16-2.803-3.896-4.63-6.929-4.63s-5.769,1.827-6.929,4.63l-19.346,46.705c-0.011,0.025-0.021,0.05-0.031,0.076l-12.623,30.475 c-1.586,3.827,0.231,8.214,4.059,9.799c3.826,1.589,8.214-0.231,9.799-4.059l10.703-25.84h28.736l10.703,25.84 c1.196,2.889,3.988,4.632,6.932,4.632c0.956,0,1.929-0.185,2.867-0.573c3.827-1.585,5.645-5.972,4.059-9.799L317.564,132.804z M283.095,128.158l8.155-19.688l8.155,19.688H283.095z"></path> <path style="fill:#000000;" d="M177.5,67.5H110c-4.143,0-7.5-3.357-7.5-7.5s3.357-7.5,7.5-7.5h67.5c4.143,0,7.5,3.357,7.5,7.5 S181.643,67.5,177.5,67.5z"></path> <path style="fill:#000000;" d="M177.5,112.5H110c-4.143,0-7.5-3.357-7.5-7.5s3.357-7.5,7.5-7.5h67.5c4.143,0,7.5,3.357,7.5,7.5 S181.643,112.5,177.5,112.5z"></path> <path style="fill:#000000;" d="M177.5,157.5H110c-4.143,0-7.5-3.357-7.5-7.5s3.357-7.5,7.5-7.5h67.5c4.143,0,7.5,3.357,7.5,7.5 S181.643,157.5,177.5,157.5z"></path> <path style="fill:#000000;" d="M177.5,202.5H110c-4.143,0-7.5-3.357-7.5-7.5s3.357-7.5,7.5-7.5h67.5c4.143,0,7.5,3.357,7.5,7.5 S181.643,202.5,177.5,202.5z"></path> <polygon style="fill:#023b1d;" points="272.29,312.23 227.5,347.23 182.71,312.23 0,455 455,455 "></polygon> </g> </g></svg>